<?xml version="1.0" encoding="UTF-8" standalone="no"?>
<!-- Created with Inkscape (http://www.inkscape.org/) -->

<svg
   xmlns:dc="http://purl.org/dc/elements/1.1/"
   xmlns:cc="http://creativecommons.org/ns#"
   xmlns:rdf="http://www.w3.org/1999/02/22-rdf-syntax-ns#"
   xmlns:svg="http://www.w3.org/2000/svg"
   xmlns="http://www.w3.org/2000/svg"
   xmlns:sodipodi="http://sodipodi.sourceforge.net/DTD/sodipodi-0.dtd"
   xmlns:inkscape="http://www.inkscape.org/namespaces/inkscape"
   width="357.74716mm"
   height="145.62862mm"
   viewBox="0 0 1267.6081 516.00694"
   id="svg2"
   version="1.1"
   inkscape:version="0.91 r13725"
   sodipodi:docname="iconos exdebian.svg">
  <defs
     id="defs4">
    <inkscape:path-effect
       effect="skeletal"
       id="path-effect4261"
       is_visible="true"
       pattern="m 2.4547683,0.00709741 1,0"
       copytype="single_stretched"
       prop_scale="1"
       scale_y_rel="false"
       spacing="0"
       normal_offset="0"
       tang_offset="0"
       prop_units="false"
       vertical_pattern="false"
       fuse_tolerance="0" />
  </defs>
  <sodipodi:namedview
     id="base"
     pagecolor="#ffffff"
     bordercolor="#666666"
     borderopacity="1.0"
     inkscape:pageopacity="0.0"
     inkscape:pageshadow="2"
     inkscape:zoom="0.39"
     inkscape:cx="473.75402"
     inkscape:cy="426.08603"
     inkscape:document-units="px"
     inkscape:current-layer="layer8"
     showgrid="false"
     inkscape:window-width="1600"
     inkscape:window-height="839"
     inkscape:window-x="0"
     inkscape:window-y="27"
     inkscape:window-maximized="1"
     showguides="true"
     inkscape:guide-bbox="true"
     units="mm"
     fit-margin-top="20"
     fit-margin-left="20"
     fit-margin-right="20"
     fit-margin-bottom="20">
    <sodipodi:guide
       position="-290.01439,145.672"
       orientation="1,0"
       id="guide4260" />
    <sodipodi:guide
       position="-142.41828,128.36431"
       orientation="1,0"
       id="guide4262" />
    <sodipodi:guide
       position="486.20854,457.29451"
       orientation="0,1"
       id="guide4439" />
    <sodipodi:guide
       position="725.04345,254.38187"
       orientation="0,1"
       id="guide4448" />
  </sodipodi:namedview>
  <metadata
     id="metadata7">
    <rdf:RDF>
      <cc:Work
         rdf:about="">
        <dc:format>image/svg+xml</dc:format>
        <dc:type
           rdf:resource="http://purl.org/dc/dcmitype/StillImage" />
        <dc:title></dc:title>
      </cc:Work>
    </rdf:RDF>
  </metadata>
  <g
     inkscape:groupmode="layer"
     id="layer2"
     inkscape:label="que haces?"
     style="display:inline"
     transform="translate(-1940.976,-1184.9119)">
    <g
       id="g4543"
       transform="translate(549.55909,170.51282)">
      <rect
         ry="0.71101683"
         y="1223.9235"
         x="2205.1755"
         height="235.61644"
         width="197.26028"
         id="rect4306"
         style="display:inline;opacity:1;fill:none;fill-opacity:1;fill-rule:evenodd;stroke:none;stroke-width:1.60000002;stroke-linecap:butt;stroke-linejoin:round;stroke-miterlimit:13.30000019;stroke-dasharray:none;stroke-dashoffset:58.58060455;stroke-opacity:1" />
      <g
         transform="translate(-225.19543,-74.545001)"
         id="g4431">
        <path
           inkscape:connector-curvature="0"
           style="fill:#4b4b4b;fill-opacity:1"
           d="m 2526.1309,1317.3477 c -24.0411,0 -48.083,0.099 -49.8008,0.2968 -11.6706,1.3424 -21.1135,8.675 -25.4981,19.7989 -1.3965,3.5429 -1.5019,5.8853 -1.5019,33.5664 0,17.0997 0.113,26.8313 0.3301,28.5214 1.4571,11.3431 10.6729,21.2753 22.621,24.3809 2.0957,0.5447 3.5308,0.6407 11.3243,0.7559 l 8.9257,0.1328 0,16.8984 c 0,9.2944 0.082,17.1121 0.1817,17.3731 0.1002,0.261 0.388,0.4746 0.6387,0.4746 0.2507,0 10.1915,-7.7974 22.0918,-17.3262 l 10.6855,-8.5547 c -0.1363,-0.062 -0.2862,-0.105 -0.4219,-0.168 -2.2896,-1.0622 -4.4917,-2.2425 -6.5957,-3.5312 -2.104,-1.2887 -4.1102,-2.6855 -6.0097,-4.1816 -1.8996,-1.4962 -3.6929,-3.0927 -5.3692,-4.7774 -1.6762,-1.6847 -3.2358,-3.4582 -4.6699,-5.3125 -1.4341,-1.8542 -2.7429,-3.7881 -3.916,-5.793 -1.1731,-2.0048 -2.2103,-4.0803 -3.1035,-6.2168 -0.8932,-2.1364 -1.6419,-4.3348 -2.2364,-6.5839 -0.2899,-1.0971 -0.4827,-2.423 -0.6035,-4.3672 -0.1207,-1.9442 -0.1703,-4.5066 -0.1699,-8.0723 3e-4,-2.6976 0.034,-4.8938 0.1367,-6.7851 0.1026,-1.8914 0.2742,-3.477 0.5528,-4.9532 0.2785,-1.4761 0.6649,-2.8427 1.1933,-4.2949 0.5285,-1.4522 1.1986,-2.9912 2.0508,-4.8105 0.9317,-1.9893 1.9889,-3.9164 3.1621,-5.7754 1.1732,-1.8591 2.4624,-3.6501 3.8594,-5.3653 1.3969,-1.7151 2.9029,-3.3546 4.5058,-4.9121 1.603,-1.5575 3.3044,-3.0318 5.0957,-4.4179 1.7913,-1.3862 3.671,-2.6838 5.6329,-3.8848 1.9618,-1.2011 4.0063,-2.3063 6.1211,-3.3086 2.1147,-1.0023 4.3009,-1.9016 6.5507,-2.6914 2.2499,-0.7898 4.5624,-1.4697 6.9297,-2.0332 1.7221,-0.4103 3.1693,-0.6507 5.4258,-0.7891 2.2565,-0.1383 5.3228,-0.1738 10.2832,-0.1738 4.9604,0 8.0267,0.035 10.2832,0.1738 2.2565,0.1385 3.7037,0.3792 5.4258,0.7891 2.3673,0.5635 4.6798,1.2434 6.9297,2.0332 2.2499,0.7898 4.436,1.6891 6.5508,2.6914 2.1147,1.0023 4.1572,2.1075 6.1191,3.3086 1.9619,1.201 3.8435,2.4986 5.6348,3.8848 1.7913,1.3861 3.4927,2.8604 5.0957,4.4179 0.7388,0.7179 1.3801,1.5116 2.0761,2.2637 -0.2667,-8.036 -0.8635,-12.2056 -2.8281,-16.1016 -4.4628,-8.8499 -13.637,-15.104 -23.8887,-16.2832 -1.7178,-0.1976 -25.7597,-0.2968 -49.8007,-0.2968 z"
           id="path4406" />
        <path
           inkscape:connector-curvature="0"
           style="fill:#4b4b4b;fill-opacity:1"
           d="m 2557.209,1339.7891 c -8.3018,0 -10.2624,0.118 -13.1445,0.8047 -15.8477,3.7725 -28.79,13.7883 -35.0274,27.1054 -2.8523,6.0897 -3.2899,8.4117 -3.291,17.4414 -8e-4,5.9676 0.1613,8.5721 0.6465,10.4082 3.9795,15.0569 16.2107,27.3519 32.6543,32.8203 7.9619,2.6479 17.6896,3.5811 25.6992,2.4668 l 3.1074,-0.4316 4.877,2.0937 c 11.0201,4.7293 19.089,6.9079 26.5254,7.1622 2.8065,0.097 5.2852,0.099 5.5097,0.012 l 0,0 c 0.2246,-0.091 0.9002,-0.272 1.502,-0.4043 1.4627,-0.3215 2.35,-1.2718 2.0957,-2.2442 -0.1143,-0.4366 -2.4274,-2.8738 -5.1406,-5.416 -5.1416,-4.8175 -7.5339,-7.9601 -8.6758,-11.3984 l -0.6758,-2.0332 3.1191,-3.2657 c 3.7858,-3.9627 7.21,-9.1104 9.0313,-13.58 2.3953,-5.8791 2.6514,-7.4352 2.6504,-16.1856 0,-9.0297 -0.4407,-11.3517 -3.293,-17.4414 -6.2373,-13.3171 -19.1777,-23.333 -35.0254,-27.1054 -2.8821,-0.686 -4.8428,-0.8047 -13.1445,-0.8047 z m -27.125,35.455 a 9.7457628,9.7457628 0 0 1 9.7461,9.7442 9.7457628,9.7457628 0 0 1 -9.7461,9.7461 9.7457628,9.7457628 0 0 1 -9.7442,-9.7461 9.7457628,9.7457628 0 0 1 9.7442,-9.7442 z m 28,0 a 9.7457628,9.7457628 0 0 1 9.7461,9.7442 9.7457628,9.7457628 0 0 1 -9.7461,9.7461 9.7457628,9.7457628 0 0 1 -9.7442,-9.7461 9.7457628,9.7457628 0 0 1 9.7442,-9.7442 z m 30,0 a 9.7457628,9.7457628 0 0 1 9.7461,9.7442 9.7457628,9.7457628 0 0 1 -9.7461,9.7461 9.7457628,9.7457628 0 0 1 -9.7442,-9.7461 9.7457628,9.7457628 0 0 1 9.7442,-9.7442 z"
           id="path4414" />
      </g>
      <text
         sodipodi:linespacing="125%"
         id="text4435"
         y="1445.8267"
         x="2209.0786"
         style="font-style:normal;font-weight:normal;font-size:40px;line-height:125%;font-family:Sans;letter-spacing:0px;word-spacing:0px;fill:#4b4b4b;fill-opacity:1;stroke:none;stroke-width:1px;stroke-linecap:butt;stroke-linejoin:miter;stroke-opacity:1"
         xml:space="preserve"><tspan
           style="font-size:37.5px;letter-spacing:-3.1500001px;fill:#4b4b4b;fill-opacity:1"
           y="1445.8267"
           x="2209.0786"
           id="tspan4437"
           sodipodi:role="line">Qué haces?</tspan></text>
    </g>
  </g>
  <g
     inkscape:groupmode="layer"
     id="layer7"
     inkscape:label="Encuesta"
     style="display:inline"
     transform="translate(-1940.976,-1184.9119)">
    <g
       id="g4551"
       transform="translate(735.28219,170.51282)">
      <rect
         style="display:inline;opacity:1;fill:none;fill-opacity:1;fill-rule:evenodd;stroke:none;stroke-width:1.60000002;stroke-linecap:butt;stroke-linejoin:round;stroke-miterlimit:13.30000019;stroke-dasharray:none;stroke-dashoffset:58.58060455;stroke-opacity:1"
         id="rect4539"
         width="197.26028"
         height="235.61644"
         x="2205.1755"
         y="1223.9235"
         ry="0.71101683" />
      <g
         transform="translate(-248.49681,0)"
         id="g4533">
        <text
           sodipodi:linespacing="125%"
           id="text4302"
           y="1445.0592"
           x="2460.2517"
           style="font-style:normal;font-weight:normal;font-size:40px;line-height:125%;font-family:Sans;letter-spacing:0px;word-spacing:0px;display:inline;fill:#4b4b4b;fill-opacity:1;stroke:none;stroke-width:1px;stroke-linecap:butt;stroke-linejoin:miter;stroke-opacity:1"
           xml:space="preserve"><tspan
             y="1445.0592"
             x="2460.2517"
             id="tspan4304"
             sodipodi:role="line">Encuesta</tspan></text>
        <path
           style="display:inline;opacity:1;fill:#4b4b4b;fill-opacity:1;fill-rule:evenodd;stroke:none;stroke-width:2;stroke-linecap:butt;stroke-linejoin:round;stroke-miterlimit:13.30000019;stroke-dasharray:none;stroke-dashoffset:58.58060455;stroke-opacity:1"
           d="m 2531.7361,1231.0691 c -7.758,0 -14.0039,6.2459 -14.0039,14.0039 l 0,117.666 0,14.0039 29.8086,0 0,-97.5957 0,-34.0742 c 0,-7.758 -6.2459,-14.0039 -14.0039,-14.0039 l -1.8008,0 z m 37.2559,22.1172 c -6.6066,0 -11.9258,5.3172 -11.9258,11.9238 l 0,99.707 0,11.9258 29.8066,0 0,-46.1543 0,-65.4785 c 0,-6.6066 -5.3172,-11.9238 -11.9238,-11.9238 l -5.957,0 z m -79.3067,22.5957 c -6.2523,0 -11.2871,5.0328 -11.2871,11.2851 l 0,78.3906 0,11.2852 29.8086,0 0,-44.2305 0,-45.4453 c 0,-6.2523 -5.0328,-11.2851 -11.2852,-11.2851 l -7.2363,0 z m 119.291,21.6347 c -6.9672,0 -12.5781,5.609 -12.5781,12.5762 l 0,54.1738 0,12.5762 29.8086,0 0,-39.9043 0,-26.8457 c 0,-6.9672 -5.6089,-12.5762 -12.5762,-12.5762 l -4.6543,0 z m -130.5781,83.6524 0,13.9433 146.6348,0 0,-13.9433 -146.6348,0 z"
           id="rect4242"
           inkscape:export-xdpi="300"
           inkscape:export-ydpi="300"
           inkscape:connector-curvature="0" />
      </g>
    </g>
  </g>
  <g
     inkscape:groupmode="layer"
     id="layer6"
     inkscape:label="Agenda"
     style="display:inline"
     transform="translate(-1940.976,-1184.9119)">
    <g
       id="g4558"
       transform="translate(-193.33348,170.51282)">
      <rect
         style="display:inline;opacity:1;fill:none;fill-opacity:1;fill-rule:evenodd;stroke:none;stroke-width:1.60000002;stroke-linecap:butt;stroke-linejoin:round;stroke-miterlimit:13.30000019;stroke-dasharray:none;stroke-dashoffset:58.58060455;stroke-opacity:1"
         id="rect4522"
         width="197.26028"
         height="235.61644"
         x="2205.1755"
         y="1223.9235"
         ry="0.71101683" />
      <path
         style="opacity:1;fill:#4b4b4b;fill-opacity:1;fill-rule:evenodd;stroke:none;stroke-width:7.33099985;stroke-linecap:butt;stroke-linejoin:miter;stroke-miterlimit:4;stroke-dasharray:none;stroke-dashoffset:58.58060455;stroke-opacity:1"
         d="m 2264.9553,1230.7021 c -4.2708,0 -7.7104,3.4356 -7.7104,7.7066 l 0,16.5652 c 0,4.2709 3.4395,7.7104 7.7104,7.7104 l 0.3649,0 c 4.2711,0 7.7105,-3.4395 7.7105,-7.7104 l 0,-16.5652 c 0,-4.271 -3.4394,-7.7066 -7.7105,-7.7066 l -0.3649,0 z m 77.8644,0 c -4.2709,0 -7.7104,3.4356 -7.7104,7.7066 l 0,16.5652 c 0,4.2709 3.4395,7.7104 7.7104,7.7104 l 0.3649,0 c 4.271,0 7.7105,-3.4395 7.7105,-7.7104 l 0,-16.5652 c 0,-4.271 -3.4395,-7.7066 -7.7105,-7.7066 l -0.3649,0 z m -64.4891,15.5158 0,11.6493 c 0,7.2072 -5.8031,13.0065 -13.0104,13.0065 -7.2073,0 -13.0104,-5.7993 -13.0104,-13.0065 l 0,-11.3641 c -12.4185,1.7501 -21.9221,12.3362 -21.9221,25.2526 l 0,96.6005 c 0,14.1476 11.3902,25.5379 25.5378,25.5379 l 95.7603,0 c 14.1476,0 25.5378,-11.3903 25.5378,-25.5379 l 0,-96.6005 c 0,-12.6055 -9.05,-22.9986 -21.0287,-25.1196 l 0,11.2311 c 0,7.2072 -5.803,13.0065 -13.0103,13.0065 -7.2073,0 -13.0104,-5.7993 -13.0104,-13.0065 l 0,-11.6493 -51.8436,0 z m -34.693,42.9661 13.4933,0 93.9582,0 13.4894,0 0,13.4932 0,34.693 0,29.8721 c 0,7.4741 -6.0154,13.4932 -13.4894,13.4932 l -93.9582,0 c -7.4742,0 -13.4933,-6.0191 -13.4933,-13.4932 l 0,-29.8721 0,-34.693 0,-13.4932 z m 8.6572,6.3569 c -0.5278,0 -0.9543,0.4264 -0.9543,0.9543 l 0,18.546 c 0,0.5278 0.4265,0.9543 0.9543,0.9543 l 19.2761,0 c 0.5277,0 0.9542,-0.4265 0.9542,-0.9543 l 0,-18.546 c 0,-0.5279 -0.4265,-0.9543 -0.9542,-0.9543 l -19.2761,0 z m 27.2525,0 c -0.5277,0 -0.9542,0.4264 -0.9542,0.9543 l 0,18.546 c 0,0.5278 0.4265,0.9543 0.9542,0.9543 l 19.2761,0 c 0.5277,0 0.9542,-0.4265 0.9542,-0.9543 l 0,-18.546 c 0,-0.5279 -0.4265,-0.9543 -0.9542,-0.9543 l -19.2761,0 z m 27.2525,0 c -0.5277,0 -0.9542,0.4264 -0.9542,0.9543 l 0,18.546 c 0,0.5278 0.4265,0.9543 0.9542,0.9543 l 19.2761,0 c 0.5278,0 0.9543,-0.4265 0.9543,-0.9543 l 0,-18.546 c 0,-0.5279 -0.4265,-0.9543 -0.9543,-0.9543 l -19.2761,0 z m 27.2526,0 c -0.5278,0 -0.9543,0.4264 -0.9543,0.9543 l 0,18.546 c 0,0.5278 0.4265,0.9543 0.9543,0.9543 l 19.2761,0 c 0.5277,0 0.9542,-0.4265 0.9542,-0.9543 l 0,-18.546 c 0,-0.5279 -0.4265,-0.9543 -0.9542,-0.9543 l -19.2761,0 z m -81.7576,27.2525 c -0.5278,0 -0.9543,0.4265 -0.9543,0.9543 l 0,18.546 c 0,0.5278 0.4265,0.9543 0.9543,0.9543 l 19.2761,0 c 0.5277,0 0.9542,-0.4265 0.9542,-0.9543 l 0,-18.546 c 0,-0.5278 -0.4265,-0.9543 -0.9542,-0.9543 l -19.2761,0 z m 27.2525,0 c -0.5277,0 -0.9542,0.4265 -0.9542,0.9543 l 0,18.546 c 0,0.5278 0.4265,0.9543 0.9542,0.9543 l 19.2761,0 c 0.5277,0 0.9542,-0.4265 0.9542,-0.9543 l 0,-18.546 c 0,-0.5278 -0.4265,-0.9543 -0.9542,-0.9543 l -19.2761,0 z m 27.2525,0 c -0.5277,0 -0.9542,0.4265 -0.9542,0.9543 l 0,18.546 c 0,0.5278 0.4265,0.9543 0.9542,0.9543 l 19.2761,0 c 0.5278,0 0.9543,-0.4265 0.9543,-0.9543 l 0,-18.546 c 0,-0.5278 -0.4265,-0.9543 -0.9543,-0.9543 l -19.2761,0 z m 27.2526,0 c -0.5278,0 -0.9543,0.4265 -0.9543,0.9543 l 0,18.546 c 0,0.5278 0.4265,0.9543 0.9543,0.9543 l 19.2761,0 c 0.5277,0 0.9542,-0.4265 0.9542,-0.9543 l 0,-18.546 c 0,-0.5278 -0.4265,-0.9543 -0.9542,-0.9543 l -19.2761,0 z m -81.7576,27.2525 c -0.5278,0 -0.9543,0.4265 -0.9543,0.9543 l 0,18.5461 c 0,0.5278 0.4265,0.9542 0.9543,0.9542 l 19.2761,0 c 0.5277,0 0.9542,-0.4264 0.9542,-0.9542 l 0,-18.5461 c 0,-0.5278 -0.4265,-0.9543 -0.9542,-0.9543 l -19.2761,0 z m 27.2525,0 c -0.5277,0 -0.9542,0.4265 -0.9542,0.9543 l 0,18.5461 c 0,0.5278 0.4265,0.9542 0.9542,0.9542 l 19.2761,0 c 0.5277,0 0.9542,-0.4264 0.9542,-0.9542 l 0,-18.5461 c 0,-0.5278 -0.4265,-0.9543 -0.9542,-0.9543 l -19.2761,0 z m 27.2525,0 c -0.5277,0 -0.9542,0.4265 -0.9542,0.9543 l 0,18.5461 c 0,0.5278 0.4265,0.9542 0.9542,0.9542 l 19.2761,0 c 0.5278,0 0.9543,-0.4264 0.9543,-0.9542 l 0,-18.5461 c 0,-0.5278 -0.4265,-0.9543 -0.9543,-0.9543 l -19.2761,0 z"
         id="path4255"
         inkscape:connector-curvature="0"
         inkscape:export-xdpi="300"
         inkscape:export-ydpi="300" />
      <text
         sodipodi:linespacing="125%"
         id="text4288"
         y="1445.9067"
         x="2229.1475"
         style="font-style:normal;font-weight:normal;font-size:40px;line-height:125%;font-family:Sans;letter-spacing:0px;word-spacing:0px;fill:#4b4b4b;fill-opacity:1;stroke:none;stroke-width:1px;stroke-linecap:butt;stroke-linejoin:miter;stroke-opacity:1"
         xml:space="preserve"><tspan
           y="1445.9067"
           x="2229.1475"
           id="tspan4290"
           sodipodi:role="line">Agenda</tspan></text>
    </g>
  </g>
  <g
     inkscape:groupmode="layer"
     id="layer5"
     inkscape:label="Wiki"
     style="display:inline"
     transform="translate(-1940.976,-1184.9119)">
    <g
       id="g4564"
       transform="translate(363.83594,170.51282)">
      <rect
         style="display:inline;opacity:1;fill:none;fill-opacity:1;fill-rule:evenodd;stroke:none;stroke-width:1.60000002;stroke-linecap:butt;stroke-linejoin:round;stroke-miterlimit:13.30000019;stroke-dasharray:none;stroke-dashoffset:58.58060455;stroke-opacity:1"
         id="rect4501"
         width="197.26028"
         height="235.61644"
         x="2205.1755"
         y="1223.9235"
         ry="0.71101683" />
      <g
         transform="translate(-219.48567,0)"
         id="g4508"
         style="display:inline">
        <path
           inkscape:export-ydpi="300"
           inkscape:export-xdpi="300"
           inkscape:connector-curvature="0"
           id="path4253"
           d="m 2487.2906,1245.9798 c -14.3962,0 -25.9869,11.4662 -25.9869,25.7077 l 0,89.4025 c 0,14.2415 11.5907,25.7078 25.9869,25.7078 l 43.2233,0 28.7823,0 25.9828,0 0,-8.6691 -103.1682,0 c -6.2488,0 -11.2808,-5.0798 -11.2808,-11.3892 l 0,-0.7303 c 0,-6.3094 5.032,-11.3891 11.2808,-11.3891 l 103.1682,0 0,-82.9326 0,-25.7077 -25.9828,0 -28.7823,0 -43.2233,0 z m 81.7973,112.5296 0,15.7668 8.0914,0 0,-15.7668 -8.0914,0 z"
           style="opacity:1;fill:#4b4b4b;fill-opacity:1;fill-rule:evenodd;stroke:none;stroke-width:7.33099985;stroke-linecap:butt;stroke-linejoin:miter;stroke-miterlimit:4;stroke-dasharray:none;stroke-dashoffset:58.58060455;stroke-opacity:1" />
        <text
           sodipodi:linespacing="125%"
           id="text4284"
           y="1446.4301"
           x="2482.4612"
           style="font-style:normal;font-weight:normal;font-size:40px;line-height:125%;font-family:Sans;letter-spacing:0px;word-spacing:0px;fill:#4b4b4b;fill-opacity:1;stroke:none;stroke-width:1px;stroke-linecap:butt;stroke-linejoin:miter;stroke-opacity:1"
           xml:space="preserve"><tspan
             y="1446.4301"
             x="2482.4612"
             id="tspan4286"
             sodipodi:role="line">Wiki</tspan></text>
      </g>
    </g>
  </g>
  <g
     inkscape:groupmode="layer"
     id="layer4"
     inkscape:label="Articulos"
     style="display:inline"
     transform="translate(-1940.976,-1184.9119)">
    <g
       id="g4571"
       transform="translate(178.11281,170.51282)">
      <rect
         style="display:inline;opacity:1;fill:none;fill-opacity:1;fill-rule:evenodd;stroke:none;stroke-width:1.60000002;stroke-linecap:butt;stroke-linejoin:round;stroke-miterlimit:13.30000019;stroke-dasharray:none;stroke-dashoffset:58.58060455;stroke-opacity:1"
         id="rect4485"
         width="197.26028"
         height="235.61644"
         x="2205.1755"
         y="1223.9235"
         ry="0.71101683" />
      <path
         style="opacity:1;fill:#4b4b4b;fill-opacity:1;fill-rule:evenodd;stroke:none;stroke-width:7.33099985;stroke-linecap:butt;stroke-linejoin:miter;stroke-miterlimit:4;stroke-dasharray:none;stroke-dashoffset:58.58060455;stroke-opacity:1"
         d="m 2260.9448,1244.1771 c -12.6013,0 -22.8716,9.5765 -23.9903,21.8766 l 12.687,0 c 6.4214,0 11.5922,5.1708 11.5922,11.5922 l 0,1.2888 c 0,6.4214 -5.1708,11.5885 -11.5922,11.5885 l -12.8012,0 0,53.3948 12.8012,0 c 6.4214,0 11.5922,5.1709 11.5922,11.5922 l 0,1.2889 c 0,6.4213 -5.1708,11.5884 -11.5922,11.5884 l -12.687,0 c 1.1345,12.2839 11.4005,21.8423 23.9903,21.8423 l 99.7522,0 c 13.3541,0 24.1046,-10.7506 24.1046,-24.1045 l 0,-97.8437 c 0,-13.3538 -10.7505,-24.1045 -24.1046,-24.1045 l -99.7522,0 z m 16.2989,12.3222 13.3033,0 24.5758,0 43.3806,0 c 7.3699,0 13.3029,5.6607 13.3029,12.6948 l 0,96.5472 c 0,7.0341 -5.933,12.6948 -13.3029,12.6948 l -43.3806,0 -24.5758,0 -13.3033,0 0,-12.6948 0,-96.5472 0,-12.6948 z m -47.9655,13.7555 c -4.5525,0 -8.2199,3.6637 -8.2199,8.2161 l 0,0.9125 c 0,4.5524 3.6673,8.2198 8.2199,8.2198 l 18.2609,0 c 4.5523,0 8.2161,-3.6674 8.2161,-8.2198 l 0,-0.9125 c 0,-4.5524 -3.6638,-8.2161 -8.2161,-8.2161 l -18.2609,0 z m 57.3413,0.3156 0,10.6607 73.9331,0 0,-10.6607 -73.9331,0 z m 0,19.4661 0,10.6607 73.9331,0 0,-10.6607 -73.9331,0 z m 0,23.3593 0,10.6607 73.9331,0 0,-10.6607 -73.9331,0 z m 0,19.4661 0,10.6607 73.9331,0 0,-10.6607 -73.9331,0 z m -57.3413,15.2573 c -4.5525,0 -8.2199,3.6636 -8.2199,8.2161 l 0,0.9124 c 0,4.5525 3.6673,8.2199 8.2199,8.2199 l 18.2609,0 c 4.5523,0 8.2161,-3.6674 8.2161,-8.2199 l 0,-0.9124 c 0,-4.5525 -3.6638,-8.2161 -8.2161,-8.2161 l -18.2609,0 z m 57.3413,6.2847 0,10.6607 48.8745,0 0,-10.6607 -48.8745,0 z"
         id="path4251"
         inkscape:connector-curvature="0"
         inkscape:export-xdpi="300"
         inkscape:export-ydpi="300" />
      <text
         sodipodi:linespacing="125%"
         id="text4280"
         y="1445.6213"
         x="2216.5334"
         style="font-style:normal;font-weight:normal;font-size:40px;line-height:125%;font-family:Sans;letter-spacing:0px;word-spacing:0px;fill:#4b4b4b;fill-opacity:1;stroke:none;stroke-width:1px;stroke-linecap:butt;stroke-linejoin:miter;stroke-opacity:1"
         xml:space="preserve"><tspan
           y="1445.6213"
           x="2216.5334"
           id="tspan4282"
           sodipodi:role="line">Artículos</tspan></text>
    </g>
  </g>
  <g
     inkscape:groupmode="layer"
     id="layer3"
     inkscape:label="Foro"
     style="display:inline"
     transform="translate(-1940.976,-1184.9119)">
    <g
       id="g4577"
       transform="translate(-7.6104242,170.51282)">
      <rect
         style="display:inline;opacity:1;fill:none;fill-opacity:1;fill-rule:evenodd;stroke:none;stroke-width:1.60000002;stroke-linecap:butt;stroke-linejoin:round;stroke-miterlimit:13.30000019;stroke-dasharray:none;stroke-dashoffset:58.58060455;stroke-opacity:1"
         id="rect4472"
         width="197.26028"
         height="235.61644"
         x="2205.1755"
         y="1223.9235"
         ry="0.71101683" />
      <path
         style="opacity:1;fill:#4b4b4b;fill-opacity:1;fill-rule:evenodd;stroke:none;stroke-width:7.33099985;stroke-linecap:butt;stroke-linejoin:miter;stroke-miterlimit:4;stroke-dasharray:none;stroke-dashoffset:58.58060455;stroke-opacity:1"
         d="m 2246.5632,1243.3796 c -14.7203,0 -26.572,11.0288 -26.572,24.7281 l 0,70.8193 c 0,13.6993 11.8517,24.728 26.572,24.728 l 25.7507,0 30.6058,31.2788 36.2937,-31.2788 21.8384,0 c 14.7201,0 26.5683,-11.0287 26.5683,-24.728 l 0,-70.8193 c 0,-13.6993 -11.8482,-24.7281 -26.5683,-24.7281 l -114.4886,0 z m 0.5665,28.1917 113.9336,0 0,15.6717 -113.9336,0 0,-15.6717 z m 0,27.2525 113.9336,0 0,15.6717 -113.9336,0 0,-15.6717 z m 0,23.3593 72.8,0 0,15.6717 -72.8,0 0,-15.6717 z"
         id="path4249"
         inkscape:connector-curvature="0"
         inkscape:export-xdpi="300"
         inkscape:export-ydpi="300" />
      <text
         xml:space="preserve"
         style="font-style:normal;font-weight:normal;font-size:40px;line-height:125%;font-family:Sans;letter-spacing:0px;word-spacing:0px;fill:#4b4b4b;fill-opacity:1;stroke:none;stroke-width:1px;stroke-linecap:butt;stroke-linejoin:miter;stroke-opacity:1"
         x="2259.8408"
         y="1446.2141"
         id="text4276"
         sodipodi:linespacing="125%"><tspan
           sodipodi:role="line"
           id="tspan4278"
           x="2259.8408"
           y="1446.2141">Foro</tspan></text>
    </g>
  </g>
  <g
     inkscape:groupmode="layer"
     id="layer8"
     inkscape:label="Texto"
     transform="translate(-1940.976,-1184.9119)">
    <text
       xml:space="preserve"
       style="font-style:normal;font-weight:normal;font-size:40px;line-height:125%;font-family:Sans;letter-spacing:0px;word-spacing:0px;fill:#000000;fill-opacity:1;stroke:none;stroke-width:1px;stroke-linecap:butt;stroke-linejoin:miter;stroke-opacity:1"
       x="2094.8718"
       y="1324.157"
       id="text4584"
       sodipodi:linespacing="125%"><tspan
         sodipodi:role="line"
         id="tspan4586"
         x="2094.8718"
         y="1324.157"
         style="font-size:90px">Iconos para Exdebian</tspan></text>
  </g>
</svg>
